<svg width="426" height="124" viewBox="0 0 426 124" fill="none" xmlns="http://www.w3.org/2000/svg">
<path d="M358.521 102C336.177 102 318.015 83.829 318.015 61.5C318.015 50.673 322.198 40.494 329.862 32.853C337.526 25.212 347.7 21 358.494 21C380.811 21 398.973 39.144 398.973 61.5C398.973 83.856 380.838 102 358.494 102H358.521ZM358.521 35.175C351.478 35.175 344.893 37.902 339.901 42.87C334.908 47.838 332.183 54.453 332.183 61.473C332.183 75.999 344.003 87.798 358.494 87.798C372.986 87.798 384.832 75.999 384.832 61.473C384.832 46.947 372.986 35.148 358.494 35.148L358.521 35.175Z" fill="white"/>
<path d="M163.035 100.974C140.717 100.974 122.556 82.803 122.556 60.474V29.154C122.556 25.239 125.713 22.08 129.626 22.08C133.539 22.08 136.723 25.239 136.723 29.154V60.474C136.723 75 148.543 86.799 163.035 86.799C177.526 86.799 189.373 75 189.373 60.474V29.1C189.373 25.185 192.557 21.999 196.443 21.999C200.329 21.999 203.541 25.158 203.541 29.1V60.474C203.541 82.803 185.379 100.974 163.035 100.974V100.974Z" fill="white"/>
<path d="M33.2862 101.001C32.0988 101.001 30.8845 100.704 29.778 100.11C26.2699 98.166 24.9745 93.738 26.9175 90.201L62.3231 25.752C63.6184 23.43 66.0742 21.999 68.6918 21.999C71.3364 21.999 73.7921 23.43 75.0605 25.752L110.547 90.201C112.49 93.738 111.195 98.166 107.687 100.11C104.151 102.027 99.6987 100.785 97.7557 97.248L68.7458 44.382L39.6819 97.221C38.3326 99.651 35.8499 101.001 33.2862 101.001Z" fill="white"/>
<path d="M299.287 101.865C297.506 101.865 295.698 101.217 294.294 99.894L225.696 35.499C222.755 32.745 222.62 28.128 225.345 25.185C228.098 22.242 232.712 22.107 235.681 24.861L304.279 89.256C307.221 92.037 307.356 96.627 304.603 99.57C303.173 101.109 301.23 101.865 299.287 101.865V101.865Z" fill="white"/>
<path d="M230.716 101.919C228.773 101.919 226.83 101.136 225.399 99.624C222.647 96.681 222.782 92.091 225.723 89.31L294.267 24.807C297.209 22.053 301.797 22.188 304.576 25.131C307.329 28.047 307.194 32.664 304.252 35.445L235.681 99.948C234.278 101.271 232.47 101.946 230.689 101.946L230.716 101.919Z" fill="white"/>
</svg>
